<svg width="1024" height="1024" viewBox="0 0 1024 1024" fill="none" xmlns="http://www.w3.org/2000/svg">
<path d="M801.429 335.27C801.445 325.93 798.318 320.342 789.692 316.192C700.201 273.14 610.819 229.86 521.547 186.353C514.165 182.757 508.094 183.077 500.987 186.797C413.175 232.756 325.267 278.528 237.26 324.115C227.474 329.164 224.062 336.011 224.147 346.026C224.346 369.651 224.506 393.277 224.625 416.903C225.031 503.676 225.535 590.449 225.63 677.221C225.641 687.341 229.14 693.132 238.22 697.846C325.609 743.225 412.878 788.835 500.026 834.677C505.487 837.535 511.062 840.174 516.583 842.916H523.029C607.114 797.284 691.199 751.651 775.284 706.017C781.318 702.743 787.289 699.346 793.382 696.186C798.71 693.423 801.262 689.135 801.286 683.224C801.293 681.72 801.296 680.216 801.296 678.714C801.296 564.232 801.34 449.751 801.429 335.27Z" fill="url(#paint0_linear_2_10)"/>
<path d="M907.55 308.011C907.609 279.037 895.699 258.619 869.591 245.759C840.942 231.646 812.714 216.678 784.309 202.07C703.955 160.746 623.616 119.394 543.29 78.014C522.828 67.4324 502.807 66.6808 482.19 77.295C371.662 134.2 261.104 191.046 150.515 247.834C128.232 259.297 116.57 277.806 116.539 302.78C116.377 441.968 116.368 581.156 116.514 720.344C116.527 746.426 128.37 765.223 151.705 777.158C213.709 808.865 275.482 841.029 337.549 872.606C392.079 900.352 446.884 927.556 501.567 955H522.321C529.423 952.077 536.779 949.649 543.588 946.156C652.411 890.345 761.21 834.487 869.985 778.582C895.515 765.529 907.59 745.571 907.536 716.928C907.282 580.623 907.287 444.318 907.55 308.011ZM497.143 845.31C497.173 845.743 497.226 846.162 497.277 846.581V921.597C495.847 921.007 494.403 920.35 492.936 919.588C384.813 863.633 276.535 807.977 168.103 752.619C152.55 744.684 145.961 733.559 145.995 716.279C146.259 580.241 146.23 444.202 145.908 308.162C145.852 304.027 146.314 299.9 147.282 295.879L214.336 333.207L214.348 333.202C215.693 333.97 217.089 334.668 218.464 335.377C308.259 381.665 398.091 427.882 487.96 474.026C495.273 477.767 497.317 482.119 497.299 489.933C497.033 605.221 496.95 720.509 497.051 835.798C497.051 838.971 496.928 842.153 497.143 845.31ZM520.151 449.537C514.076 452.663 509.549 452.354 503.609 449.275C419.639 405.742 335.597 362.35 251.482 319.099L164.623 273.763C165.725 273.107 166.873 272.47 168.081 271.854C274.486 217.589 380.751 163.052 486.876 108.243C489.18 107.059 491.64 106.141 493.83 104.779C506.062 97.1725 517.692 98.2227 530.413 104.803C616.561 149.365 702.838 193.678 789.244 237.74C810.243 248.512 831.22 259.326 852.175 270.182C854.64 271.455 857.024 272.878 860.504 274.823C848.828 280.881 838.176 286.469 827.471 291.954C725.013 344.445 622.573 396.973 520.151 449.537ZM855.349 752.882C747.158 808.07 639.143 863.604 531.305 919.482C529.753 920.285 528.225 920.987 526.71 921.606V844.434C526.825 841.981 526.755 839.516 526.756 837.052C526.788 720.899 526.767 604.746 526.693 488.593C526.683 481.689 528.552 478.01 534.963 474.744C646.264 418.046 757.474 361.172 868.594 304.122C871.079 302.85 873.634 301.714 877.555 299.849C877.555 304.282 877.555 307.353 877.555 310.424C877.641 445.601 877.784 580.777 877.985 715.952C878.039 733.62 871.181 744.807 855.349 752.882Z" fill="#4200AA"/>
<defs>
<linearGradient id="paint0_linear_2_10" x1="224.145" y1="513.37" x2="801.429" y2="513.37" gradientUnits="userSpaceOnUse">
<stop stop-color="#6CC3F4"/>
<stop offset="0.171" stop-color="#7FAAE9"/>
<stop offset="0.533" stop-color="#B26DCD"/>
<stop offset="1" stop-color="#FA15A6"/>
</linearGradient>
</defs>
</svg>
